<svg xmlns="http://www.w3.org/2000/svg" viewBox="0 0 32 32"><defs><style>.cls-1{fill:#E3C39D}</style></defs><g id="compass"><path class="cls-1" d="M25.9 6.1a14 14 0 0 0-19.8 0 1 1 0 0 0 0 1.41 1 1 0 0 0 1.41 0 12 12 0 1 1-2.59 3.87c.13-.31.27-.62.43-.92a1 1 0 1 0-1.77-.92c-.19.35-.35.71-.51 1.08A14 14 0 1 0 25.9 6.1z"/><path class="cls-1" d="M19 15.93a1 1 0 0 0 .37.07 1 1 0 0 0 .93-.63l1.58-3.95a1 1 0 0 0-1.3-1.3L13.51 13a1 1 0 0 0-.29.19v.06a.74.74 0 0 0-.17.25l-2.83 7.07a1 1 0 0 0 .83 1.43.94.94 0 0 0 .37-.07l7.07-2.83a1 1 0 0 0 .61-.73 1 1 0 0 0-.27-.91l-3.17-3.17 3.49-1.39-.71 1.78a1 1 0 0 0 .56 1.25zm-6.15 3.22 1.39-3.49 2.1 2.1z"/></g></svg>